<?xml version="1.0"?><svg width="640" height="480" xmlns="http://www.w3.org/2000/svg">
 <title>Light Bulb</title>
 <metadata id="metadata13869">image/svg+xml</metadata>
 <g>
  <path fill="#bfbfbf" stroke-width="14" d="m286.913757,143.45694c0,79.229034 -64.227798,143.456909 -143.456863,143.456909c-79.22905,0 -143.456901,-64.227875 -143.456901,-143.456909c0,-79.229057 64.227851,-143.45692 143.456901,-143.45692c79.229065,0 143.456863,64.227862 143.456863,143.45692z" id="path3794-1"/>
  <title>Layer 1</title>
  <g stroke-width="11.722406" stroke-miterlimit="4" id="g4663">
   <path fill="none" stroke="#000000" stroke-width="11.722406" stroke-linecap="round" stroke-miterlimit="4" id="path3986-6" d="m132.950775,211.319168l19.567444,-6.533173"/>
   <path fill="none" stroke="#000000" stroke-width="11.722406" stroke-linecap="round" stroke-miterlimit="4" id="path3986-6-5" d="m132.779999,226.439865l29.158188,-10.978348"/>
   <path fill="none" stroke="#000000" stroke-width="11.722406" stroke-linecap="round" stroke-miterlimit="4" id="path3986-6-6" d="m142.057312,237.167252l19.567444,-6.533173"/>
   <path fill="none" stroke="#000000" stroke-width="11.722406" stroke-miterlimit="4" d="m167.512085,205.540344c0,0 0,-3.967712 2.11235,-18.85463c2.081848,-14.618576 23.159134,-49.270355 24.028961,-50.490814c7.346985,-8.972198 11.723328,-19.959297 11.723328,-31.871674c0,-30.139709 -27.724686,-54.576668 -61.919113,-54.576668c-34.197357,0 -61.920578,24.436958 -61.920578,54.576668c0,11.912376 4.376236,22.899475 11.721024,31.871674c0.869003,1.221176 21.950966,35.872971 24.030418,50.490814c2.114655,14.886917 2.114655,18.85463 2.114655,18.85463" id="path4420"/>
  </g>
 </g>
</svg>